<svg width="151" height="151" viewBox="0 0 151 151" fill="none" xmlns="http://www.w3.org/2000/svg">
<mask id="path-1-inside-1_22_423" fill="white">
<path d="M150.5 75.5C150.5 88.6653 147.035 101.599 140.452 113C133.869 124.401 124.401 133.869 113 140.452C101.599 147.035 88.6652 150.5 75.5 150.5C62.3347 150.5 49.4014 147.035 38 140.452L75.5 75.5H150.5Z"/>
</mask>
<path d="M150.5 75.5C150.5 88.6653 147.035 101.599 140.452 113C133.869 124.401 124.401 133.869 113 140.452C101.599 147.035 88.6652 150.5 75.5 150.5C62.3347 150.5 49.4014 147.035 38 140.452L75.5 75.5H150.5Z" fill="#184462" fill-opacity="0.28" stroke="white" stroke-opacity="0.77" stroke-width="2" mask="url(#path-1-inside-1_22_423)"/>
<mask id="path-2-inside-2_22_423" fill="white">
<path d="M38 140.452C26.5986 133.869 17.1307 124.401 10.5481 113C3.96547 101.599 0.499999 88.6652 0.5 75.5C0.500001 62.3347 3.96547 49.4014 10.5481 38C17.1307 26.5986 26.5986 17.1307 38 10.5481L75.5 75.5L38 140.452Z"/>
</mask>
<path d="M38 140.452C26.5986 133.869 17.1307 124.401 10.5481 113C3.96547 101.599 0.499999 88.6652 0.5 75.5C0.500001 62.3347 3.96547 49.4014 10.5481 38C17.1307 26.5986 26.5986 17.1307 38 10.5481L75.5 75.5L38 140.452Z" fill="#184462" fill-opacity="0.28" stroke="white" stroke-opacity="0.77" stroke-width="2" mask="url(#path-2-inside-2_22_423)"/>
<mask id="path-3-inside-3_22_423" fill="white">
<path d="M38 10.5481C49.4015 3.96547 62.3348 0.499998 75.5 0.5C88.6653 0.500002 101.599 3.96547 113 10.5481C124.401 17.1307 133.869 26.5986 140.452 38C147.035 49.4015 150.5 62.3348 150.5 75.5L75.5 75.5L38 10.5481Z"/>
</mask>
<path d="M38 10.5481C49.4015 3.96547 62.3348 0.499998 75.5 0.5C88.6653 0.500002 101.599 3.96547 113 10.5481C124.401 17.1307 133.869 26.5986 140.452 38C147.035 49.4015 150.5 62.3348 150.5 75.5L75.5 75.5L38 10.5481Z" fill="#184462" fill-opacity="0.28" stroke="white" stroke-opacity="0.77" stroke-width="2" mask="url(#path-3-inside-3_22_423)"/>
</svg>
